<svg width="72" height="77" viewBox="0 0 72 77" fill="none" xmlns="http://www.w3.org/2000/svg">
<path d="M34.9675 28.1133C27.6352 28.1133 21.7392 29.0864 21.7392 37.9709C21.7272 40.7386 20.6271 43.3905 18.6766 45.354C16.726 47.3176 14.0815 48.4352 11.314 48.4656C8.53522 48.4656 5.87028 47.3617 3.9054 45.3969C1.94053 43.432 0.83667 40.7671 0.83667 37.9883C0.83667 35.2095 1.94053 32.5446 3.9054 30.5797C5.87028 28.6149 8.53522 27.511 11.314 27.511C20.187 27.511 21.1716 21.6266 21.1716 14.2826C21.1716 11.5457 21.9836 8.87026 23.5049 6.59506C25.0262 4.31986 27.1883 2.54716 29.7176 1.50138C32.2468 0.455591 35.0295 0.183733 37.7133 0.720218C40.3972 1.2567 42.8615 2.57741 44.7944 4.51515C46.7273 6.45289 48.0418 8.92054 48.5715 11.6057C49.1012 14.2909 48.8224 17.0729 47.7702 19.5995C46.7181 22.1261 44.94 24.2838 42.6609 25.7994C40.3819 27.3149 37.7045 28.1202 34.9675 28.1133" fill="#98A6D4"/>
<path d="M11.2907 48.9173C9.82554 48.965 8.36575 48.7176 6.99811 48.1898C5.63047 47.662 4.38291 46.8647 3.3296 45.8451C2.27629 44.8255 1.43874 43.6046 0.866751 42.2548C0.294759 40.9051 0 39.4541 0 37.9882C0 36.5223 0.294759 35.0713 0.866751 33.7215C1.43874 32.3718 2.27629 31.1509 3.3296 30.1313C4.38291 29.1117 5.63047 28.3143 6.99811 27.7866C8.36575 27.2588 9.82554 27.0114 11.2907 27.0591C19.1907 27.0591 20.6965 22.5647 20.6965 14.3172C20.6897 11.4905 21.5218 8.72523 23.0875 6.37167C24.6532 4.01811 26.8821 2.18208 29.4919 1.09608C32.1018 0.0100839 34.9752 -0.277043 37.7483 0.271059C40.5214 0.819161 43.0696 2.17784 45.07 4.17505C47.0705 6.17226 48.4333 8.71818 48.9859 11.4904C49.5385 14.2627 49.2561 17.1365 48.1743 19.7481C47.0925 22.3598 45.2601 24.5916 42.9091 26.1612C40.5581 27.7307 37.7942 28.5673 34.9674 28.565C26.6852 28.565 22.2256 30.0593 22.2256 37.9708C22.2271 39.4078 21.9454 40.8309 21.3965 42.159C20.8477 43.487 20.0425 44.6938 19.0269 45.7104C18.0114 46.727 16.8054 47.5335 15.478 48.0838C14.1505 48.634 12.7277 48.9173 11.2907 48.9173V48.9173ZM34.9674 0.903517C31.4221 0.90965 28.0238 2.32155 25.518 4.8296C23.0121 7.33765 21.6031 10.7371 21.6001 14.2825C21.6001 21.2326 20.8008 27.9626 11.2907 27.9626C9.30424 27.9558 7.36046 28.5388 5.70575 29.6379C4.05104 30.737 2.75991 32.3027 1.99601 34.1364C1.23211 35.9701 1.02985 37.9893 1.41486 39.9382C1.79987 41.887 2.75481 43.6776 4.15865 45.083C5.56248 46.4885 7.352 47.4455 9.30036 47.8328C11.2487 48.2201 13.2682 48.0201 15.1028 47.2584C16.9374 46.4966 18.5045 45.2073 19.6055 43.5538C20.7066 41.9004 21.2919 39.9573 21.2873 37.9708C21.2873 28.4492 28.0521 27.6615 34.9674 27.6615C38.5158 27.6615 41.9188 26.2519 44.4278 23.7429C46.9369 21.2338 48.3464 17.8308 48.3464 14.2825C48.3464 10.7342 46.9369 7.33117 44.4278 4.82213C41.9188 2.31308 38.5158 0.903517 34.9674 0.903517V0.903517Z" fill="white"/>
<path d="M30.9597 43.2644C39.7168 43.2644 46.6669 42.106 46.6669 31.5187C46.6646 29.0586 47.3917 26.6531 48.7563 24.6063C50.1209 22.5594 52.0617 20.963 54.3334 20.0189C56.6051 19.0749 59.1057 18.8255 61.5191 19.3024C63.9325 19.7792 66.1503 20.9609 67.8923 22.6979C69.6342 24.435 70.822 26.6496 71.3056 29.0616C71.7892 31.4737 71.5468 33.9749 70.6091 36.2492C69.6714 38.5236 68.0804 40.4688 66.0374 41.8391C63.9943 43.2094 61.5908 43.9432 59.1308 43.9478C48.5435 43.9478 47.3967 50.9906 47.3967 59.6898C47.4036 62.9478 46.4435 66.1346 44.6379 68.8465C42.8324 71.5584 40.2627 73.6736 37.2543 74.924C34.2458 76.1745 30.934 76.5041 27.7381 75.871C24.5422 75.238 21.6061 73.6707 19.3015 71.3678C16.997 69.0649 15.4276 66.1298 14.7923 62.9344C14.157 59.739 14.4842 56.4269 15.7326 53.4175C16.981 50.4082 19.0943 47.837 21.805 46.0296C24.5156 44.2222 27.7017 43.2598 30.9597 43.2644" fill="white"/>
<path d="M30.9595 76.6251C28.7021 76.6842 26.4558 76.2906 24.3529 75.4675C22.2501 74.6445 20.3334 73.4086 18.7159 71.8329C17.0984 70.2572 15.8128 68.3735 14.935 66.2929C14.0572 64.2123 13.605 61.9771 13.605 59.7189C13.605 57.4607 14.0572 55.2254 14.935 53.1449C15.8128 51.0643 17.0984 49.1806 18.7159 47.6049C20.3334 46.0291 22.2501 44.7933 24.3529 43.9703C26.4558 43.1472 28.7021 42.7536 30.9595 42.8127C39.3112 42.8127 46.215 41.9555 46.215 31.5188C46.2127 28.9694 46.9663 26.4765 48.3806 24.3554C49.7948 22.2342 51.8061 20.5799 54.1604 19.6017C56.5146 18.6234 59.106 18.3651 61.6071 18.8594C64.1081 19.3537 66.4064 20.5783 68.2115 22.3786C70.0167 24.1789 71.2475 26.4739 71.7485 28.9736C72.2496 31.4733 71.9982 34.0654 71.0263 36.4222C70.0544 38.7791 68.4056 40.7949 66.2882 42.2148C64.1708 43.6348 61.68 44.3951 59.1307 44.3997C48.7055 44.3997 47.8483 51.3498 47.8483 59.6899C47.8483 64.1734 46.0704 68.4739 42.9045 71.6485C39.7386 74.8232 35.4429 76.6128 30.9595 76.6251V76.6251ZM59.1307 19.553C55.9519 19.5499 52.9018 20.8081 50.6498 23.0515C48.3977 25.2948 47.1277 28.3401 47.1185 31.5188C47.1185 42.778 39.1375 43.7162 30.9595 43.7162C27.7941 43.714 24.6993 44.6508 22.0666 46.4082C19.4339 48.1656 17.3817 50.6645 16.1699 53.5887C14.958 56.5129 14.6409 59.7309 15.2587 62.8354C15.8766 65.9398 17.4015 68.7913 19.6406 71.0287C21.8796 73.2661 24.7321 74.789 27.8371 75.4046C30.942 76.0201 34.1597 75.7007 37.083 74.4867C40.0064 73.2727 42.5038 71.2188 44.2593 68.5848C46.0148 65.9509 46.9494 62.8553 46.9448 59.6899C46.9448 51.5004 47.883 43.473 59.1307 43.473C62.2413 43.3762 65.1921 42.0725 67.3582 39.838C69.5243 37.6034 70.7356 34.6135 70.7356 31.5014C70.7356 28.3893 69.5243 25.3994 67.3582 23.1648C65.1921 20.9303 62.2413 19.6266 59.1307 19.5298V19.553Z" fill="white"/>
</svg>
